# xmcd
#
# Track frame offsets:
#	150
#	14669
#	32748
#
# Disc length: 630 seconds
#
# Revision: 1
# Processed by: cddbd v1.5.2PL0 Copyright (c) Steve Scherf et al.
# Submitted via: audiograbber 1.83.01
#
DISCID=1e027403
DTITLE=Dann, Samantha - Who Do You think I Am
DYEAR=2006
DGENRE=
TTITLE0=Who Do you Think I am
TTITLE1=Ain't No Easy Road
TTITLE2=Walk like You Know
EXTD=
EXTT0=
EXTT1=
EXTT2=
PLAYORDER=
